<svg xmlns="http://www.w3.org/2000/svg" xmlns:xlink="http://www.w3.org/1999/xlink" width="300" zoomAndPan="magnify" viewBox="0 0 224.87999 149.999998" height="200" preserveAspectRatio="xMidYMid meet" version="1.0"><defs><filter x="0%" y="0%" width="100%" height="100%" id="ca25af1b20"><feColorMatrix values="0 0 0 0 1 0 0 0 0 1 0 0 0 0 1 0 0 0 1 0" color-interpolation-filters="sRGB"/></filter><clipPath id="e8b86afa06"><path d="M 0 0.0390625 L 224.761719 0.0390625 L 224.761719 149.960938 L 0 149.960938 Z M 0 0.0390625 " clip-rule="nonzero"/></clipPath><mask id="5e8ce32330"><g filter="url(#ca25af1b20)"><rect x="-22.487999" width="269.855988" fill="#000000" y="-15" height="179.999997" fill-opacity="0.45"/></g></mask><clipPath id="55535d953b"><path d="M 0.28125 0.472656 L 96.230469 0.472656 L 96.230469 77.683594 L 0.28125 77.683594 Z M 0.28125 0.472656 " clip-rule="nonzero"/></clipPath><clipPath id="6ff053f096"><rect x="0" width="98" y="0" height="78"/></clipPath></defs><g clip-path="url(#e8b86afa06)"><path fill="#ffffff" d="M 0 0.0390625 L 224.878906 0.0390625 L 224.878906 149.960938 L 0 149.960938 Z M 0 0.0390625 " fill-opacity="1" fill-rule="nonzero"/><path fill="#767a87" d="M 0 0.0390625 L 224.878906 0.0390625 L 224.878906 149.960938 L 0 149.960938 Z M 0 0.0390625 " fill-opacity="1" fill-rule="nonzero"/></g><g mask="url(#5e8ce32330)"><g transform="matrix(1, 0, 0, 1, 64, 36)"><g clip-path="url(#6ff053f096)"><g clip-path="url(#55535d953b)"><path fill="#000000" d="M 91.429688 0.472656 L 5.082031 0.472656 C 4.765625 0.472656 4.453125 0.503906 4.144531 0.566406 C 3.835938 0.628906 3.535156 0.71875 3.246094 0.839844 C 2.953125 0.960938 2.679688 1.109375 2.417969 1.285156 C 2.15625 1.460938 1.914062 1.664062 1.691406 1.886719 C 1.46875 2.109375 1.269531 2.355469 1.09375 2.617188 C 0.917969 2.882812 0.769531 3.160156 0.648438 3.453125 C 0.527344 3.746094 0.4375 4.046875 0.375 4.355469 C 0.316406 4.667969 0.285156 4.980469 0.285156 5.300781 L 0.285156 72.855469 C 0.285156 73.171875 0.316406 73.488281 0.375 73.796875 C 0.4375 74.109375 0.527344 74.410156 0.648438 74.703125 C 0.769531 74.996094 0.917969 75.273438 1.09375 75.539062 C 1.269531 75.800781 1.46875 76.042969 1.691406 76.269531 C 1.914062 76.492188 2.15625 76.691406 2.417969 76.867188 C 2.679688 77.042969 2.953125 77.195312 3.246094 77.316406 C 3.535156 77.4375 3.835938 77.527344 4.144531 77.589844 C 4.453125 77.652344 4.765625 77.683594 5.082031 77.683594 L 91.429688 77.683594 C 91.746094 77.683594 92.058594 77.652344 92.367188 77.589844 C 92.675781 77.527344 92.976562 77.4375 93.265625 77.316406 C 93.558594 77.195312 93.832031 77.042969 94.09375 76.867188 C 94.355469 76.691406 94.601562 76.492188 94.824219 76.269531 C 95.046875 76.042969 95.242188 75.800781 95.417969 75.539062 C 95.59375 75.273438 95.742188 74.996094 95.863281 74.703125 C 95.984375 74.410156 96.074219 74.109375 96.136719 73.796875 C 96.195312 73.488281 96.226562 73.171875 96.226562 72.855469 L 96.226562 5.300781 C 96.226562 4.980469 96.195312 4.667969 96.136719 4.355469 C 96.074219 4.046875 95.984375 3.746094 95.863281 3.453125 C 95.742188 3.160156 95.59375 2.882812 95.417969 2.617188 C 95.242188 2.355469 95.046875 2.109375 94.824219 1.886719 C 94.601562 1.664062 94.355469 1.460938 94.09375 1.285156 C 93.832031 1.109375 93.558594 0.960938 93.265625 0.839844 C 92.976562 0.71875 92.675781 0.628906 92.367188 0.566406 C 92.058594 0.503906 91.746094 0.472656 91.429688 0.472656 Z M 24.269531 14.949219 C 24.898438 14.949219 25.523438 15.011719 26.140625 15.136719 C 26.761719 15.257812 27.359375 15.441406 27.941406 15.683594 C 28.523438 15.925781 29.078125 16.222656 29.601562 16.578125 C 30.125 16.929688 30.609375 17.328125 31.054688 17.777344 C 31.5 18.226562 31.898438 18.710938 32.246094 19.238281 C 32.597656 19.765625 32.894531 20.320312 33.132812 20.90625 C 33.375 21.492188 33.558594 22.097656 33.679688 22.71875 C 33.804688 23.339844 33.863281 23.96875 33.863281 24.601562 C 33.863281 25.234375 33.804688 25.863281 33.679688 26.484375 C 33.558594 27.105469 33.375 27.707031 33.132812 28.292969 C 32.894531 28.878906 32.597656 29.4375 32.246094 29.960938 C 31.898438 30.488281 31.5 30.976562 31.054688 31.425781 C 30.609375 31.875 30.125 32.273438 29.601562 32.625 C 29.078125 32.976562 28.523438 33.273438 27.941406 33.515625 C 27.359375 33.761719 26.761719 33.941406 26.140625 34.066406 C 25.523438 34.191406 24.898438 34.253906 24.269531 34.253906 C 23.640625 34.253906 23.015625 34.191406 22.398438 34.066406 C 21.78125 33.941406 21.179688 33.761719 20.597656 33.515625 C 20.015625 33.273438 19.464844 32.976562 18.941406 32.625 C 18.417969 32.273438 17.929688 31.875 17.484375 31.425781 C 17.039062 30.976562 16.644531 30.488281 16.292969 29.964844 C 15.941406 29.4375 15.648438 28.878906 15.40625 28.292969 C 15.164062 27.707031 14.984375 27.105469 14.859375 26.484375 C 14.738281 25.863281 14.675781 25.234375 14.675781 24.601562 C 14.675781 23.96875 14.738281 23.339844 14.859375 22.71875 C 14.984375 22.097656 15.164062 21.492188 15.40625 20.90625 C 15.648438 20.320312 15.941406 19.765625 16.292969 19.238281 C 16.644531 18.710938 17.039062 18.226562 17.484375 17.777344 C 17.929688 17.328125 18.417969 16.929688 18.941406 16.578125 C 19.464844 16.222656 20.015625 15.925781 20.597656 15.683594 C 21.179688 15.441406 21.78125 15.257812 22.398438 15.136719 C 23.015625 15.011719 23.640625 14.949219 24.269531 14.949219 Z M 86.632812 68.03125 L 9.878906 68.03125 L 9.878906 59.988281 L 29.066406 43.902344 L 42.773438 54.246094 L 67.445312 29.425781 L 86.632812 55.160156 Z M 86.632812 68.03125 " fill-opacity="1" fill-rule="nonzero"/></g></g></g></g></svg>