<svg xmlns="http://www.w3.org/2000/svg" xmlns:xlink="http://www.w3.org/1999/xlink" width="213" zoomAndPan="magnify" viewBox="0 0 159.75 374.999991" height="500" preserveAspectRatio="xMidYMid meet" version="1.0"><defs><filter x="0%" y="0%" width="100%" height="100%" id="8131b5b1b4"><feColorMatrix values="0 0 0 0 1 0 0 0 0 1 0 0 0 0 1 0 0 0 1 0" color-interpolation-filters="sRGB"/></filter><clipPath id="9752e619a2"><path d="M 0 0.292969 L 159.5 0.292969 L 159.5 374.707031 L 0 374.707031 Z M 0 0.292969 " clip-rule="nonzero"/></clipPath><mask id="b9f6beea5b"><g filter="url(#8131b5b1b4)"><rect x="-15.975" width="191.7" fill="#000000" y="-37.499999" height="449.999989" fill-opacity="0.45"/></g></mask><clipPath id="0453f8d83e"><path d="M 0.949219 0.460938 L 128.25 0.460938 L 128.25 102.300781 L 0.949219 102.300781 Z M 0.949219 0.460938 " clip-rule="nonzero"/></clipPath><clipPath id="6cb57e5e5c"><rect x="0" width="130" y="0" height="104"/></clipPath></defs><g clip-path="url(#9752e619a2)"><path fill="#ffffff" d="M 0 0.292969 L 159.5 0.292969 L 159.5 374.707031 L 0 374.707031 Z M 0 0.292969 " fill-opacity="1" fill-rule="nonzero"/><path fill="#767a87" d="M 0 0.292969 L 159.5 0.292969 L 159.5 374.707031 L 0 374.707031 Z M 0 0.292969 " fill-opacity="1" fill-rule="nonzero"/></g><g mask="url(#b9f6beea5b)"><g transform="matrix(1, 0, 0, 1, 15, 136)"><g clip-path="url(#6cb57e5e5c)"><g clip-path="url(#0453f8d83e)"><path fill="#000000" d="M 121.886719 0.460938 L 7.316406 0.460938 C 6.898438 0.460938 6.484375 0.5 6.074219 0.582031 C 5.664062 0.664062 5.265625 0.785156 4.878906 0.945312 C 4.492188 1.105469 4.125 1.300781 3.777344 1.53125 C 3.429688 1.765625 3.109375 2.027344 2.8125 2.324219 C 2.519531 2.621094 2.253906 2.941406 2.023438 3.289062 C 1.789062 3.636719 1.59375 4.003906 1.433594 4.390625 C 1.273438 4.773438 1.152344 5.171875 1.074219 5.582031 C 0.992188 5.992188 0.949219 6.40625 0.949219 6.824219 L 0.949219 95.933594 C 0.949219 96.351562 0.992188 96.765625 1.074219 97.175781 C 1.152344 97.585938 1.273438 97.984375 1.433594 98.371094 C 1.59375 98.757812 1.789062 99.125 2.023438 99.472656 C 2.253906 99.820312 2.519531 100.140625 2.8125 100.4375 C 3.109375 100.730469 3.429688 100.996094 3.777344 101.226562 C 4.125 101.460938 4.492188 101.65625 4.878906 101.816406 C 5.265625 101.976562 5.664062 102.097656 6.074219 102.179688 C 6.484375 102.257812 6.898438 102.300781 7.316406 102.300781 L 121.886719 102.300781 C 122.304688 102.300781 122.71875 102.257812 123.128906 102.179688 C 123.539062 102.097656 123.933594 101.976562 124.320312 101.816406 C 124.707031 101.65625 125.074219 101.460938 125.421875 101.226562 C 125.769531 100.996094 126.089844 100.730469 126.386719 100.4375 C 126.683594 100.140625 126.945312 99.820312 127.179688 99.472656 C 127.410156 99.125 127.605469 98.757812 127.765625 98.371094 C 127.925781 97.984375 128.046875 97.585938 128.128906 97.175781 C 128.210938 96.765625 128.25 96.351562 128.25 95.933594 L 128.25 6.824219 C 128.25 6.40625 128.210938 5.992188 128.128906 5.582031 C 128.046875 5.171875 127.925781 4.773438 127.765625 4.390625 C 127.605469 4.003906 127.410156 3.636719 127.179688 3.289062 C 126.945312 2.941406 126.683594 2.621094 126.386719 2.324219 C 126.089844 2.027344 125.769531 1.765625 125.421875 1.53125 C 125.074219 1.300781 124.707031 1.105469 124.320312 0.945312 C 123.933594 0.785156 123.539062 0.664062 123.128906 0.582031 C 122.71875 0.5 122.304688 0.460938 121.886719 0.460938 Z M 32.773438 19.554688 C 33.609375 19.554688 34.4375 19.636719 35.257812 19.800781 C 36.078125 19.960938 36.875 20.203125 37.648438 20.523438 C 38.417969 20.84375 39.152344 21.234375 39.847656 21.699219 C 40.542969 22.164062 41.1875 22.691406 41.777344 23.285156 C 42.367188 23.875 42.894531 24.519531 43.359375 25.210938 C 43.824219 25.90625 44.214844 26.640625 44.535156 27.414062 C 44.855469 28.1875 45.097656 28.980469 45.261719 29.800781 C 45.421875 30.621094 45.503906 31.449219 45.503906 32.285156 C 45.503906 33.121094 45.421875 33.949219 45.261719 34.769531 C 45.097656 35.589844 44.855469 36.382812 44.535156 37.15625 C 44.214844 37.929688 43.824219 38.664062 43.359375 39.359375 C 42.894531 40.050781 42.367188 40.695312 41.777344 41.285156 C 41.1875 41.878906 40.542969 42.40625 39.847656 42.871094 C 39.152344 43.335938 38.417969 43.726562 37.648438 44.046875 C 36.875 44.367188 36.078125 44.609375 35.257812 44.769531 C 34.4375 44.933594 33.609375 45.015625 32.773438 45.015625 C 31.9375 45.015625 31.113281 44.933594 30.292969 44.769531 C 29.472656 44.609375 28.675781 44.367188 27.902344 44.046875 C 27.132812 43.726562 26.398438 43.335938 25.703125 42.871094 C 25.007812 42.40625 24.363281 41.878906 23.773438 41.285156 C 23.183594 40.695312 22.65625 40.050781 22.191406 39.359375 C 21.726562 38.664062 21.335938 37.929688 21.015625 37.15625 C 20.695312 36.382812 20.453125 35.589844 20.289062 34.769531 C 20.125 33.949219 20.046875 33.121094 20.046875 32.285156 C 20.046875 31.449219 20.125 30.621094 20.289062 29.800781 C 20.453125 28.980469 20.695312 28.1875 21.015625 27.414062 C 21.335938 26.640625 21.726562 25.90625 22.191406 25.210938 C 22.65625 24.519531 23.183594 23.875 23.773438 23.285156 C 24.363281 22.691406 25.007812 22.164062 25.703125 21.699219 C 26.398438 21.234375 27.132812 20.84375 27.902344 20.523438 C 28.675781 20.203125 29.472656 19.960938 30.292969 19.800781 C 31.113281 19.636719 31.9375 19.554688 32.773438 19.554688 Z M 115.519531 89.570312 L 13.679688 89.570312 L 13.679688 78.960938 L 39.140625 57.746094 L 57.324219 71.386719 L 90.0625 38.648438 L 115.519531 72.59375 Z M 115.519531 89.570312 " fill-opacity="1" fill-rule="nonzero"/></g></g></g></g></svg>